# xmcd CD database file
#
# Track frame offsets:
#	150
#	18647
#	35087
#	56972
#	74715
#	89220
#	112602
#	127932
#	139462
#	155285
#	170820
#	186265
#	202845
#	226162
#
# Disc length: 3309 seconds
#
# Revision: 0
# Processed by: cddbd v1.5.1PL2 Copyright (c) Steve Scherf et al.
# Submitted via: CDex 1.51
#
DISCID=ce0ceb0e
DTITLE=Shilver Rose - 〜Dear Argent〜　終止符
DYEAR=1994
DGENRE=Rock
TTITLE0=Real of Love?
TTITLE1=Led Freedom
TTITLE2=Keen Kiss Me
TTITLE3=漂流 〜Float About〜
TTITLE4=Misty Love
TTITLE5=罪 〜Silence of the Darknight〜
TTITLE6=Cry Heart
TTITLE7=LIE
TTITLE8=Psychocrime
TTITLE9=Ash,Break,Crime and Dead
TTITLE10=Secret
TTITLE11=Destiny
TTITLE12=薄命 〜Low Life〜
TTITLE13=Grassic Nonfiction
EXTD=YEAR: 1994
EXTT0=
EXTT1=
EXTT2=
EXTT3=
EXTT4=
EXTT5=
EXTT6=
EXTT7=
EXTT8=
EXTT9=
EXTT10=
EXTT11=
EXTT12=
EXTT13=
PLAYORDER=
